<svg width="24" height="24" viewBox="0 0 24 24" fill="none" xmlns="http://www.w3.org/2000/svg">
<path d="M12 11V3M12 3L15 6M12 3L9 6M21 18C21 18.7956 20.6839 19.5587 20.1213 20.1213C19.5587 20.6839 18.7956 21 18 21L6 21C5.20435 21 4.44129 20.6839 3.87868 20.1213C3.31607 19.5587 3 18.7956 3 18C3 17.2044 3.31607 16.4413 3.87868 15.8787C4.44129 15.3161 5.20435 15 6 15L18 15C18.7956 15 19.5587 15.3161 20.1213 15.8787C20.6839 16.4413 21 17.2044 21 18Z" stroke="#636363" stroke-linecap="square"/>
</svg>
