<svg width="20" height="20" viewBox="0 0 20 20" fill="none" xmlns="http://www.w3.org/2000/svg">
<path d="M7 4H8C8.53043 4 9.03914 4.21071 9.41421 4.58579C9.78929 4.96086 10 5.46957 10 6V14C10 14.5304 9.78929 15.0391 9.41421 15.4142C9.03914 15.7893 8.53043 16 8 16H7M13 10H10M5 1C5.53043 1 6.03914 1.21071 6.41421 1.58579C6.78929 1.96086 7 2.46957 7 3V5C7 5.53043 6.78929 6.03914 6.41421 6.41421C6.03914 6.78929 5.53043 7 5 7H3C2.46957 7 1.96086 6.78929 1.58579 6.41421C1.21071 6.03914 1 5.53043 1 5V3C1 2.46957 1.21071 1.96086 1.58579 1.58579C1.96086 1.21071 2.46957 1 3 1H5ZM5 13C5.53043 13 6.03914 13.2107 6.41421 13.5858C6.78929 13.9609 7 14.4696 7 15L7 17C7 17.5304 6.78929 18.0391 6.41421 18.4142C6.03914 18.7893 5.53043 19 5 19H3C2.46957 19 1.96086 18.7893 1.58579 18.4142C1.21071 18.0391 1 17.5304 1 17V15C1 14.4696 1.21071 13.9609 1.58579 13.5858C1.96086 13.2107 2.46957 13 3 13L5 13ZM17 7C17.5304 7 18.0391 7.21071 18.4142 7.58579C18.7893 7.96086 19 8.46957 19 9V11C19 11.5304 18.7893 12.0391 18.4142 12.4142C18.0391 12.7893 17.5304 13 17 13H15C14.4696 13 13.9609 12.7893 13.5858 12.4142C13.2107 12.0391 13 11.5304 13 11V9C13 8.46957 13.2107 7.96086 13.5858 7.58579C13.9609 7.21071 14.4696 7 15 7H17Z" stroke="#636363" stroke-linecap="round" stroke-linejoin="round"/>
</svg>
