<svg width="25" height="24" viewBox="0 0 25 24" fill="none" xmlns="http://www.w3.org/2000/svg">
<g filter="url(#filter0_i_1_945)">
<path d="M13.5 7H20.5C20.7652 7 21.0196 7.10536 21.2071 7.29289C21.3946 7.48043 21.5 7.73478 21.5 8V16C21.5 16.2652 21.3946 16.5196 21.2071 16.7071C21.0196 16.8946 20.7652 17 20.5 17H13.5M5.5 7H4.5C4.23478 7 3.98043 7.10536 3.79289 7.29289C3.60536 7.48043 3.5 7.73478 3.5 8V16C3.5 16.2652 3.60536 16.5196 3.79289 16.7071C3.98043 16.8946 4.23478 17 4.5 17H5.5" stroke="white" stroke-width="2" stroke-linecap="round" stroke-linejoin="round"/>
<path d="M13.5 20H11.5C10.9696 20 10.4609 19.7893 10.0858 19.4142C9.71071 19.0391 9.5 18.5304 9.5 18V6C9.5 5.46957 9.71071 4.96086 10.0858 4.58579C10.4609 4.21071 10.9696 4 11.5 4H13.5M5.5 20H7.5C8.03043 20 8.53914 19.7893 8.91421 19.4142C9.28929 19.0391 9.5 18.5304 9.5 18V6C9.5 5.46957 9.28929 4.96086 8.91421 4.58579C8.53914 4.21071 8.03043 4 7.5 4H5.5" stroke="white" stroke-width="2" stroke-linecap="round" stroke-linejoin="round"/>
</g>
<defs>
<filter id="filter0_i_1_945" x="0.5" y="0" width="24" height="24" filterUnits="userSpaceOnUse" color-interpolation-filters="sRGB">
<feFlood flood-opacity="0" result="BackgroundImageFix"/>
<feBlend mode="normal" in="SourceGraphic" in2="BackgroundImageFix" result="shape"/>
<feColorMatrix in="SourceAlpha" type="matrix" values="0 0 0 0 0 0 0 0 0 0 0 0 0 0 0 0 0 0 127 0" result="hardAlpha"/>
<feOffset dy="1"/>
<feComposite in2="hardAlpha" operator="arithmetic" k2="-1" k3="1"/>
<feColorMatrix type="matrix" values="0 0 0 0 0 0 0 0 0 0 0 0 0 0 0 0 0 0 0.15 0"/>
<feBlend mode="normal" in2="shape" result="effect1_innerShadow_1_945"/>
</filter>
</defs>
</svg>
