<svg width="24" height="24" viewBox="0 0 24 24" fill="none" xmlns="http://www.w3.org/2000/svg">
<path d="M7 4H3V20H7M17 4H21V20H17" stroke="#636363" stroke-linecap="round" stroke-linejoin="round"/>
<path d="M12.6667 8.6665H17M12.6667 15.3332H17M6 7.33317C6 7.15636 6.07024 6.98679 6.19526 6.86177C6.32029 6.73674 6.48986 6.6665 6.66667 6.6665H9.33333C9.51014 6.6665 9.67971 6.73674 9.80474 6.86177C9.92976 6.98679 10 7.15636 10 7.33317V9.99984C10 10.1766 9.92976 10.3462 9.80474 10.4712C9.67971 10.5963 9.51014 10.6665 9.33333 10.6665H6.66667C6.48986 10.6665 6.32029 10.5963 6.19526 10.4712C6.07024 10.3462 6 10.1766 6 9.99984V7.33317ZM6 13.9998C6 13.823 6.07024 13.6535 6.19526 13.5284C6.32029 13.4034 6.48986 13.3332 6.66667 13.3332H9.33333C9.51014 13.3332 9.67971 13.4034 9.80474 13.5284C9.92976 13.6535 10 13.823 10 13.9998V16.6665C10 16.8433 9.92976 17.0129 9.80474 17.1379C9.67971 17.2629 9.51014 17.3332 9.33333 17.3332H6.66667C6.48986 17.3332 6.32029 17.2629 6.19526 17.1379C6.07024 17.0129 6 16.8433 6 16.6665V13.9998Z" stroke="#636363" stroke-linecap="round" stroke-linejoin="round"/>
</svg>
