<svg width="24" height="24" viewBox="0 0 24 24" fill="none" xmlns="http://www.w3.org/2000/svg">
<path d="M9.33325 9.3335C9.33325 8.80306 9.57908 8.29436 10.0167 7.91928C10.4543 7.54421 11.0477 7.3335 11.6666 7.3335H12.3333C12.9521 7.3335 13.5456 7.54421 13.9832 7.91928C14.4208 8.29436 14.6666 8.80306 14.6666 9.3335C14.6911 9.76633 14.5744 10.1954 14.3339 10.5561C14.0934 10.9169 13.7422 11.1897 13.3333 11.3335C12.9243 11.5252 12.5731 11.889 12.3326 12.37C12.0921 12.8509 11.9754 13.423 11.9999 14.0002M11.9999 16.6668V16.6735" stroke="#636363" stroke-linecap="round" stroke-linejoin="round"/>
<path d="M7 4H3V20H7M17 4H21V20H17" stroke="#636363" stroke-linecap="round" stroke-linejoin="round"/>
</svg>
