<svg width="18" height="18" viewBox="0 0 18 18" fill="none" xmlns="http://www.w3.org/2000/svg">
<path d="M1.25 9C1.25 10.0177 1.45046 11.0255 1.83993 11.9658C2.22941 12.9061 2.80027 13.7604 3.51992 14.4801C4.23958 15.1997 5.09393 15.7706 6.0342 16.1601C6.97448 16.5495 7.98226 16.75 9 16.75C10.0177 16.75 11.0255 16.5495 11.9658 16.1601C12.9061 15.7706 13.7604 15.1997 14.4801 14.4801C15.1997 13.7604 15.7706 12.9061 16.1601 11.9658C16.5495 11.0255 16.75 10.0177 16.75 9C16.75 6.94457 15.9335 4.97333 14.4801 3.51992C13.0267 2.06652 11.0554 1.25 9 1.25C6.94457 1.25 4.97333 2.06652 3.51992 3.51992C2.06652 4.97333 1.25 6.94457 1.25 9Z" stroke="#CFCFCF" stroke-width="1.5" stroke-linecap="round" stroke-linejoin="round"/>
<path d="M8.74743 13.3628V13.3727M7.25 6.19956C7.53829 5.85898 7.93334 5.62596 8.37088 5.53842C8.80843 5.45087 9.26272 5.51395 9.65986 5.71739C10.0599 5.92123 10.3796 6.25395 10.5672 6.66183C10.7549 7.06971 10.7996 7.52894 10.6941 7.96535C10.5887 8.40177 10.3392 8.7899 9.98595 9.06707C9.63274 9.34423 9.19641 9.49425 8.74743 9.4929V10.75" stroke="#CFCFCF" stroke-width="1.5" stroke-linecap="round" stroke-linejoin="round"/>
</svg>
